<?xml version="1.0" encoding="UTF-8"?>
<svg width="35px" height="35px" viewBox="0 0 35 35" version="1.1" xmlns="http://www.w3.org/2000/svg" xmlns:xlink="http://www.w3.org/1999/xlink">
    <title>81AEF885-CE4E-493E-9244-94D7FACFE141</title>
    <g id="Page-2" stroke="none" stroke-width="1" fill="none" fill-rule="evenodd">
        <g id="스프린트-5-(디자인-스프린트-2)-" transform="translate(-1563.000000, -5143.000000)" fill="#838383">
            <rect x="0" y="0" width="28662" height="7233"></rect>
        </g>
        <g id="PC1-1-홈-(4p)-" transform="translate(-1305.000000, -4549.000000)">
            <rect fill="#FFFFFF" x="0" y="0" width="1440" height="4814"></rect>
            <rect id="Rectangle-Copy-12" fill="#1D1D1D" x="0" y="4484" width="1440" height="330"></rect>
            <g id="Group-35" transform="translate(1185.000000, 4549.000000)">
                <g id="Group-10" transform="translate(120.000000, 0.000000)">
                    <circle id="Oval-Copy-3" fill="#1D1D1D" cx="17.5" cy="17.5" r="17.5"></circle>
                    <g id="Instagram" transform="translate(5.500000, 6.000000)" fill="#FFFFFF">
                        <path d="M13.1604201,0.000775943792 C14.6994531,0.00320862659 15.391005,0.0118225928 16.0389419,0.0329875661 L16.3629975,0.0446454595 C16.5451442,0.0517358982 16.7342634,0.0598766939 16.9475847,0.069204372 C18.2248447,0.125033493 19.0971676,0.319453955 19.860456,0.603757932 C20.6495621,0.897602617 21.3187732,1.29082588 21.985936,1.93014463 C22.6530513,2.56950903 23.0633712,3.21083636 23.3700394,3.96706302 C23.6666567,4.69854776 23.8695303,5.53452379 23.9277867,6.75856471 C23.978131,7.81597615 23.995341,8.25286758 23.9991308,10.3541968 L23.9999495,11.1865274 L23.9999495,11.1865274 L24,11.5000228 C24,11.607719 23.9999836,11.7121672 23.9999495,11.8135137 L23.9991308,12.6458325 C23.995341,14.7471324 23.978131,15.1840238 23.9277867,16.2414353 C23.8695303,17.4654762 23.6666567,18.3014522 23.3700394,19.032937 C23.0633712,19.7891636 22.6530513,20.430491 21.985936,21.0698554 C21.3187732,21.7091741 20.6495621,22.1023974 19.860456,22.3962877 C19.0971676,22.680546 18.2248447,22.8749665 16.9475847,22.9307956 C16.7342634,22.9401233 16.5451442,22.9482641 16.3629975,22.9553545 L16.0389419,22.9670124 C15.391005,22.9881774 14.6994531,22.9967914 13.1604201,22.9992241 L12.3165586,22.9999548 L12.3165586,22.9999548 L12.0000238,23 C11.8913895,23 11.7859224,22.9999853 11.6834844,22.9999548 L10.8396109,22.9992241 C9.30055647,22.9967914 8.60899798,22.9881774 7.96105897,22.9670124 L7.63700277,22.9553545 C7.4548558,22.9482641 7.26573661,22.9401233 7.05241535,22.9307956 C5.77515526,22.8749665 4.90283244,22.680546 4.13954402,22.3962877 C3.35043794,22.1023974 2.68122682,21.7091741 2.01406396,21.0698554 C1.34694874,20.430491 0.936628817,19.7891636 0.630008276,19.032937 C0.333343257,18.3014522 0.130469732,17.4654762 0.0722132578,16.2414353 C0.0218689681,15.1840238 0.00465896371,14.7471324 0.000869174899,12.6458325 L0.000869174899,10.3541968 C0.00465896371,8.25286758 0.0218689681,7.81597615 0.0722132578,6.75856471 C0.130469732,5.53452379 0.333343257,4.69854776 0.630008276,3.96706302 C0.936628817,3.21083636 1.34694874,2.56950903 2.01406396,1.93014463 C2.68122682,1.29082588 3.35043794,0.897602617 4.13954402,0.603757932 C4.90283244,0.319453955 5.77515526,0.125033493 7.05241535,0.069204372 C7.26573661,0.0598766939 7.4548558,0.0517358982 7.63700277,0.0446454595 L7.96105897,0.0329875661 C8.60899798,0.0118225928 9.30055647,0.00320862659 10.8396109,0.000775943792 Z M13.1398181,2.0727696 L10.8602129,2.0727696 C8.67890963,2.0759719 8.24760827,2.09117718 7.15097025,2.13912722 C5.9809821,2.19025447 5.34559117,2.37759928 4.92274348,2.53508944 C4.3626144,2.74370684 3.96286924,2.99290649 3.54297487,3.39535091 C3.12303286,3.79774969 2.86299845,4.1808388 2.64531072,4.71762917 C2.48097316,5.1228582 2.28548292,5.73177451 2.23213276,6.85301315 C2.18236336,7.89838262 2.16640085,8.31288498 2.16294426,10.3745761 L2.16294426,12.6254532 C2.16640085,14.687115 2.18236336,15.1016174 2.23213276,16.1469868 C2.28548292,17.2682255 2.48097316,17.8771418 2.64531072,18.2823708 C2.86299845,18.8191612 3.1230805,19.2022503 3.54297487,19.6046491 C3.96286924,20.0070935 4.3626144,20.2562932 4.92274348,20.4649106 C5.34559117,20.6224007 5.9809821,20.8097455 7.15097025,20.8608728 C8.24748442,20.9088228 8.67869771,20.9240281 10.8601348,20.9272304 L13.1398985,20.9272304 C15.3213133,20.9240281 15.7525569,20.9088228 16.8490298,20.8608728 C18.0190179,20.8097455 18.6544088,20.6224007 19.0772565,20.4649106 C19.6373856,20.2562932 20.0371308,20.0070935 20.4570251,19.6046491 C20.8769671,19.2022503 21.1370016,18.8191612 21.3546893,18.2823708 C21.5190268,17.8771418 21.7145171,17.2682255 21.7678672,16.1469868 C21.8176366,15.1016174 21.8335992,14.687115 21.8370557,12.6254532 L21.8370557,10.3745761 C21.8335992,8.31288498 21.8176366,7.89838262 21.7678672,6.85301315 C21.7145171,5.73177451 21.5190268,5.1228582 21.3546893,4.71762917 C21.1370016,4.1808388 20.8769671,3.79774969 20.4570251,3.39535091 C20.0371308,2.99290649 19.6373856,2.74370684 19.0772565,2.53508944 C18.6544088,2.37759928 18.0190179,2.19025447 16.8490298,2.13912722 C15.7523917,2.09117718 15.3210904,2.0759719 13.1398181,2.0727696 Z M12.0000238,5.5945983 C15.4032879,5.5945983 18.1621583,8.23851572 18.1621583,11.5000228 C18.1621583,14.7614843 15.4032879,17.4054017 12.0000238,17.4054017 C8.59671206,17.4054017 5.8378417,14.7614843 5.8378417,11.5000228 C5.8378417,8.23851572 8.59671206,5.5945983 12.0000238,5.5945983 Z M12.0000238,7.66666667 C9.79085069,7.66666667 8,9.38289857 8,11.5000228 C8,13.6171014 9.79085069,15.3333333 12.0000238,15.3333333 C14.2091493,15.3333333 16,13.6171014 16,11.5000228 C16,9.38289857 14.2091493,7.66666667 12.0000238,7.66666667 Z M18.4056161,3.98125996 C19.2009146,3.98125996 19.8456418,4.59912353 19.8456418,5.36128461 C19.8456418,6.12344569 19.2009146,6.74126361 18.4056161,6.74126361 C17.6103652,6.74126361 16.965638,6.12344569 16.965638,5.36128461 C16.965638,4.59912353 17.6103652,3.98125996 18.4056161,3.98125996 Z"></path>
                    </g>
                </g>
            </g>
        </g>
    </g>
</svg>