<?xml version="1.0" encoding="UTF-8"?>
<svg width="35px" height="35px" viewBox="0 0 35 35" version="1.1" xmlns="http://www.w3.org/2000/svg" xmlns:xlink="http://www.w3.org/1999/xlink">
    <title>E62C4E2D-232A-4D53-A297-2E27AE48E7F2</title>
    <g id="Page-2" stroke="none" stroke-width="1" fill="none" fill-rule="evenodd">
        <g id="PC1-1-홈-(4p)-" transform="translate(-1185.000000, -4609.000000)">
            <g id="Group-35" transform="translate(1185.000000, 4549.000000)">
                <g id="Group-7" transform="translate(0.000000, 60.000000)">
                    <circle id="Oval" fill="#1D1D1D" cx="17.5" cy="17.5" r="17.5"></circle>
                    <path d="M15.0008096,22 L15,14 L22,18.0137916 L15.0008096,22 Z M29.75,12.882792 C29.75,12.882792 29.5054687,11.1193406 28.75625,10.3427822 C27.8054687,9.32309948 26.7398437,9.31830097 26.2515625,9.25911939 C22.753125,9 17.5054687,9 17.5054687,9 L17.4945312,9 C17.4945312,9 12.246875,9 8.7484375,9.25911939 C8.259375,9.31830097 7.19453125,9.32309948 6.24296875,10.3427822 C5.49375,11.1193406 5.25,12.882792 5.25,12.882792 C5.25,12.882792 5,14.9541476 5,17.0247034 L5,18.9664993 C5,21.0378549 5.25,23.1084107 5.25,23.1084107 C5.25,23.1084107 5.49375,24.8718621 6.24296875,25.6484205 C7.19453125,26.6681033 8.44375,26.6361132 9,26.7424801 C11,26.9392189 17.5,27 17.5,27 C17.5,27 22.753125,26.9920025 26.2515625,26.7328831 C26.7398437,26.6729018 27.8054687,26.6681033 28.75625,25.6484205 C29.5054687,24.8718621 29.75,23.1084107 29.75,23.1084107 C29.75,23.1084107 30,21.0378549 30,18.9664993 L30,17.0247034 C30,14.9541476 29.75,12.882792 29.75,12.882792 L29.75,12.882792 Z" id="Fill-25" fill="#FFFFFF"></path>
                </g>
            </g>
        </g>
    </g>
</svg>